<svg xmlns="http://www.w3.org/2000/svg" viewBox="0 0 2560 275.62"><defs><style>.cls-1{fill:#0e6eb4;}</style></defs><title>资源 1</title><g id="图层_2" data-name="图层 2"><g id="レイヤー_1" data-name="レイヤー 1"><path class="cls-1" d="M194.76,48.17q-46.26,0-70.06,15.67T97.67,112l238.34.39v47.78H97.29q0,36.31,22.74,51.6,22.36,15.67,74.73,15.68H336v48.16H190.55q-25.61,0-43.2-1.14a260.21,260.21,0,0,1-32.49-4.4,179.67,179.67,0,0,1-51.6-18.73q-31-16.43-47.12-43.87T0,142.79Q0,70.54,47.11,35.26T192.85,0H336V48.17Z"/><polygon class="cls-1" points="371.6 0.01 480.54 0.01 647.77 198.02 643.76 0.01 731.87 0.01 731.87 275.61 632.11 275.61 455.88 67.29 459.71 275.61 371.6 275.61 371.6 0.01"/><path class="cls-1" d="M892.46,0H984l174.11,275.62h-95.37l-37.66-65.37H847l-36.32,65.37H719.3ZM934.7,55.24,875.06,160.93H997Z"/><path class="cls-1" d="M1381,275.62H1155.88V0h210.24q20.07,0,35.26.76t29.34,2.3q25.81,3.25,40,9.94,22.36,9,34.49,24.37a54.59,54.59,0,0,1,12.14,34.69q0,23.12-14.91,38.8-14.92,16.05-46.26,26.95,32.12,9.37,47,24.28,14.53,14.91,14.53,38.41,0,38.61-33.27,56.58-33.64,18.54-103.4,18.53M1241.69,49.89v63.27h126.53a177.22,177.22,0,0,0,25.8-1.53,45.64,45.64,0,0,0,16.44-5.92q13.95-7.84,14-24.27,0-16.07-14-24.28-14.16-7.27-42.44-7.27Zm127.67,176.79q29,0,42.23-7.45t13.19-24.66q0-16.81-13.19-24.65-13.75-7.83-42.23-7.83H1241.69v64.6Z"/><path class="cls-1" d="M1716.48,275.62q-57.53,0-84.86-6.69a128.25,128.25,0,0,1-49.32-22.37q-20.07-13.57-28.67-31.73-9-18-9-50.84V0h86.19V162.09q0,25,3.44,34.4,3.63,9.76,9.75,14.91a58.43,58.43,0,0,0,14.53,8.61,132.68,132.68,0,0,0,16.44,5.92q19.68,4,49.31,4h101.11v45.68Z"/><path class="cls-1" d="M2008.93,48.17q-46.25,0-70.06,15.67t-27,48.17l238.34.39v47.78H1911.45q0,36.31,22.75,51.6,22.36,15.67,74.73,15.68h141.24v48.16H2004.73q-25.61,0-43.19-1.14a260.13,260.13,0,0,1-32.5-4.4,179.78,179.78,0,0,1-51.6-18.73q-31-16.43-47.11-43.87t-16.16-64.69q0-72.25,47.12-107.52T2007,0h143.15V48.17Z"/><path class="cls-1" d="M2185.76,0h212.16Q2471.5,0,2506,20.37T2540.5,83q0,31-21.21,51.22-21,20.46-61.36,26.38L2560,275.61h-97.1l-89.64-108H2271.59v108h-85.83Zm191.52,49.51H2271.59V118.7h105.69q42.05,0,59.63-7.83,16.63-8.79,16.63-27.14,0-18.73-16.44-26.57-16.83-7.64-59.82-7.64"/></g></g></svg>
