<svg xmlns="http://www.w3.org/2000/svg" viewBox="0 0 71.64 71.69"><defs><style>.cls-1,.cls-2{fill:none;}.cls-2{stroke:#007bff;stroke-linecap:round;stroke-miterlimit:10;stroke-width:4px;}.cls-3{fill:#007bff;}</style></defs><title>资源 152</title><g id="图层_2" data-name="图层 2"><g id="图层_1-2" data-name="图层 1"><rect class="cls-1" x="1.82" y="2" width="68" height="68"/><line class="cls-2" x1="2" y1="24.66" x2="2" y2="69.64"/><line class="cls-2" x1="2" y1="24.6" x2="24.55" y2="2.05"/><line class="cls-2" x1="24.54" y1="2.05" x2="47.09" y2="24.6"/><line class="cls-2" x1="47.09" y1="24.6" x2="69.64" y2="2.05"/><line class="cls-2" x1="69.64" y1="2.05" x2="69.64" y2="47.03"/><polygon class="cls-1" points="69.64 22.07 69.64 69.66 2 69.66 2 2.03 69.64 2.03 69.64 22.07 69.64 22.07"/><line class="cls-2" x1="24.54" y1="47.14" x2="47.09" y2="69.69"/><line class="cls-2" x1="24.55" y1="47.14" x2="2" y2="69.69"/><line class="cls-2" x1="69.64" y1="47.14" x2="47.09" y2="69.69"/><line class="cls-2" x1="47.09" y1="24.66" x2="47.09" y2="69.66"/><line class="cls-2" x1="2" y1="44.97" x2="24.55" y2="22.32"/><line class="cls-2" x1="69.64" y1="21.47" x2="47.09" y2="44.86"/><line class="cls-2" x1="24.55" y1="47.09" x2="24.55" y2="2"/><polygon class="cls-3" points="24.55 22.32 24.55 47.45 47.09 70 47.09 45.2 24.55 22.32"/><line class="cls-2" x1="24.55" y1="22.32" x2="47.09" y2="44.86"/></g></g></svg>