<svg xmlns="http://www.w3.org/2000/svg" viewBox="0 0 72 71.99"><defs><style>.cls-1,.cls-2{fill:none;}.cls-2{stroke:#007bff;stroke-linecap:round;stroke-miterlimit:10;stroke-width:4px;}</style></defs><title>资源 157</title><g id="图层_2" data-name="图层 2"><g id="图层_1-2" data-name="图层 1"><rect class="cls-1" x="2" y="2" width="68" height="68"/><polyline class="cls-1" points="69.98 22.16 69.98 69.97 2.02 69.97 2.02 2.02 69.98 2.02 69.98 22.16"/><path class="cls-2" d="M11.19,12.78a34,34,0,1,1,48,48"/><path class="cls-2" d="M17.2,18.79a25.48,25.48,0,1,1,36,36"/><path class="cls-2" d="M23.22,24.81a17,17,0,1,1,24,24"/><line class="cls-2" x1="2.04" y1="26.01" x2="2.04" y2="69.96"/><path class="cls-2" d="M2.23,25.93H14.52a8.66,8.66,0,0,1,8.66,8.66v0a8.66,8.66,0,0,1-8.66,8.66H2a0,0,0,0,1,0,0V26.16A.23.23,0,0,1,2.23,25.93Z"/><path class="cls-2" d="M2,43.38H16.78A13.31,13.31,0,0,1,30.09,56.69v0A13.31,13.31,0,0,1,16.78,70H2.23A.23.23,0,0,1,2,69.77V43.38a0,0,0,0,1,0,0Z"/></g></g></svg>