<svg xmlns="http://www.w3.org/2000/svg" viewBox="0 0 72.03 68"><defs><style>.cls-1,.cls-2{fill:none;}.cls-2{stroke:#007bff;stroke-linecap:round;stroke-miterlimit:10;stroke-width:4px;}</style></defs><title>资源 149</title><g id="图层_2" data-name="图层 2"><g id="图层_1-2" data-name="图层 1"><rect class="cls-1" x="2.02" width="68" height="68"/><polyline class="cls-1" points="70.02 20.15 70.02 68 2.02 68 2.02 0 70.02 0 70.02 20.15"/><path class="cls-2" d="M4,18.37H70a0,0,0,0,1,0,0V60.66a2,2,0,0,1-2,2H4a2,2,0,0,1-2-2V20.37a2,2,0,0,1,2-2Z"/><path class="cls-2" d="M36,18.37H2V5.57a.23.23,0,0,1,.23-.23H36"/><line class="cls-2" x1="36" y1="5.34" x2="44.61" y2="18.37"/><path class="cls-2" d="M40.11,11.46H69.81a.23.23,0,0,1,.23.23v6.69H44.61"/></g></g></svg>