<svg xmlns="http://www.w3.org/2000/svg" viewBox="0 0 71.75 71.75"><defs><style>.cls-1,.cls-2,.cls-3,.cls-4,.cls-5{fill:none;}.cls-2,.cls-3,.cls-4,.cls-5{stroke:#06c;stroke-linecap:round;stroke-miterlimit:10;stroke-width:4px;}.cls-3{stroke-dasharray:1.75 5.24;}.cls-4{stroke-dasharray:1.87 5.61;}.cls-5{stroke-dasharray:2 5.99;}</style></defs><title>资源 221</title><g id="图层_2" data-name="图层 2"><g id="图层_1-2" data-name="图层 1"><rect class="cls-1" x="1.87" y="1.87" width="68" height="68"/><line class="cls-2" x1="2" y1="24.59" x2="24.58" y2="2"/><line class="cls-2" x1="24.58" y1="2" x2="47.17" y2="24.58"/><line class="cls-2" x1="24.58" y1="47.17" x2="47.17" y2="69.75"/><line class="cls-2" x1="62.78" y1="8.97" x2="69.75" y2="2"/><line class="cls-2" x1="47.17" y1="24.59" x2="49.33" y2="22.43"/><line class="cls-2" x1="2" y1="69.75" x2="24.58" y2="47.16"/><line class="cls-2" x1="47.17" y1="69.75" x2="69.75" y2="47.16"/><line class="cls-2" x1="69.75" y1="2" x2="69.75" y2="47.05"/><line class="cls-2" x1="2" y1="69.72" x2="2" y2="24.56"/><path class="cls-2" d="M47.93,19.09a9.67,9.67,0,0,1-.25-2.18"/><path class="cls-2" d="M48.54,20.9a9.57,9.57,0,0,1-.61-1.81"/><path class="cls-2" d="M47.68,16.91a9.64,9.64,0,1,1,18.41,4"/><path class="cls-2" d="M52.82,16.91a4.51,4.51,0,1,1,4.51,4.51,4.51,4.51,0,0,1-4.51-4.51"/><line class="cls-2" x1="49.6" y1="22.95" x2="57.32" y2="37.78"/><line class="cls-2" x1="48.53" y1="20.9" x2="49.6" y2="22.95"/><line class="cls-2" x1="66.11" y1="20.9" x2="57.32" y2="37.78"/><line class="cls-2" x1="2" y1="41.83" x2="2.71" y2="41.13"/><line class="cls-3" x1="6.41" y1="37.42" x2="19.37" y2="24.46"/><line class="cls-2" x1="21.22" y1="22.61" x2="21.93" y2="21.9"/><line class="cls-2" x1="44.57" y1="44.43" x2="45.28" y2="43.72"/><line class="cls-4" x1="49.24" y1="39.76" x2="52.54" y2="36.46"/><line class="cls-2" x1="54.53" y1="34.47" x2="55.23" y2="33.77"/><line class="cls-2" x1="21.99" y1="21.85" x2="22.69" y2="22.56"/><line class="cls-5" x1="26.93" y1="26.79" x2="41.74" y2="41.61"/><line class="cls-2" x1="43.86" y1="43.72" x2="44.57" y2="44.43"/></g></g></svg>