<svg xmlns="http://www.w3.org/2000/svg" viewBox="0 0 71.75 71.75"><defs><style>.cls-1,.cls-2,.cls-3,.cls-4,.cls-5,.cls-6{fill:none;}.cls-2,.cls-3,.cls-4,.cls-5,.cls-6{stroke:#fff;stroke-linecap:round;stroke-width:4px;}.cls-2{stroke-miterlimit:10;}.cls-3,.cls-4,.cls-5,.cls-6{stroke-linejoin:bevel;}.cls-4{stroke-dasharray:3.34 5.84;}.cls-5{stroke-dasharray:2.46 4.31;}.cls-6{stroke-dasharray:3.85 6.74;}</style></defs><title>资源 199</title><g id="图层_2" data-name="图层 2"><g id="图层_1-2" data-name="图层 1"><rect class="cls-1" x="1.87" y="1.75" width="68" height="68"/><line class="cls-2" x1="2" y1="24.59" x2="24.58" y2="2"/><line class="cls-2" x1="24.58" y1="2" x2="47.17" y2="24.58"/><line class="cls-2" x1="24.58" y1="47.17" x2="47.17" y2="69.75"/><line class="cls-2" x1="62.78" y1="8.97" x2="69.75" y2="2"/><line class="cls-2" x1="47.17" y1="24.59" x2="49.33" y2="22.43"/><line class="cls-2" x1="2" y1="69.75" x2="24.58" y2="47.16"/><line class="cls-2" x1="47.17" y1="69.75" x2="69.75" y2="47.16"/><line class="cls-2" x1="69.75" y1="2" x2="69.75" y2="47.05"/><line class="cls-2" x1="2" y1="69.72" x2="2" y2="24.56"/><path class="cls-2" d="M47.93,19.09a9.67,9.67,0,0,1-.25-2.18"/><path class="cls-2" d="M48.54,20.9a9.57,9.57,0,0,1-.61-1.81"/><path class="cls-2" d="M47.68,16.91a9.64,9.64,0,1,1,18.41,4"/><path class="cls-2" d="M52.82,16.91a4.51,4.51,0,1,1,4.51,4.51,4.51,4.51,0,0,1-4.51-4.51"/><line class="cls-2" x1="49.6" y1="22.95" x2="57.32" y2="37.78"/><line class="cls-2" x1="48.53" y1="20.9" x2="49.6" y2="22.95"/><line class="cls-2" x1="66.11" y1="20.9" x2="57.32" y2="37.78"/><line class="cls-3" x1="2" y1="41.83" x2="3.41" y2="40.42"/><line class="cls-4" x1="7.54" y1="36.29" x2="18.45" y2="25.38"/><line class="cls-3" x1="20.52" y1="23.32" x2="21.93" y2="21.9"/><line class="cls-3" x1="44.57" y1="44.43" x2="45.98" y2="43.02"/><line class="cls-5" x1="49.03" y1="39.97" x2="52.29" y2="36.7"/><line class="cls-3" x1="53.82" y1="35.18" x2="55.23" y2="33.77"/><line class="cls-3" x1="21.99" y1="21.85" x2="23.4" y2="23.26"/><line class="cls-6" x1="28.17" y1="28.03" x2="40.77" y2="40.63"/><line class="cls-3" x1="43.15" y1="43.02" x2="44.57" y2="44.43"/></g></g></svg>