<svg xmlns="http://www.w3.org/2000/svg" viewBox="0 0 71.75 71.8"><defs><style>.cls-1,.cls-2,.cls-3,.cls-4,.cls-5,.cls-6{fill:none;}.cls-2,.cls-3,.cls-4,.cls-5,.cls-6{stroke:#007bff;stroke-miterlimit:10;}.cls-2,.cls-3,.cls-4,.cls-5{stroke-linecap:round;}.cls-2,.cls-6{stroke-width:4px;}.cls-3{stroke-width:2px;}.cls-5{stroke-dasharray:4 4;}</style></defs><title>资源 151</title><g id="图层_2" data-name="图层 2"><g id="图层_1-2" data-name="图层 1"><rect class="cls-1" x="1.87" y="1.8" width="68" height="68"/><polyline class="cls-1" points="69.75 21.88 69.75 69.55 2 69.55 2 1.8 69.75 1.8 69.75 21.88"/><line class="cls-2" x1="2" y1="24.64" x2="24.58" y2="2.05"/><line class="cls-2" x1="24.58" y1="2.05" x2="47.17" y2="24.63"/><line class="cls-2" x1="24.58" y1="47.22" x2="47.17" y2="69.8"/><line class="cls-2" x1="47.17" y1="24.64" x2="69.75" y2="2.05"/><line class="cls-2" x1="2" y1="69.8" x2="24.58" y2="47.21"/><line class="cls-2" x1="47.17" y1="69.8" x2="69.75" y2="47.21"/><line class="cls-2" x1="69.75" y1="2.05" x2="69.75" y2="47.1"/><line class="cls-2" x1="24.58" y1="2" x2="24.58" y2="47.17"/><line class="cls-2" x1="47.17" y1="24.7" x2="47.17" y2="69.75"/><path class="cls-3" d="M59.83,26.35a3.56,3.56,0,0,1-.32-1.48"/><path class="cls-3" d="M59.51,24.88a3.57,3.57,0,1,1,6.82,1.48"/><path class="cls-4" d="M61.41,24.88a1.67,1.67,0,1,1,1.67,1.67,1.67,1.67,0,0,1-1.67-1.67"/><line class="cls-3" x1="59.82" y1="26.35" x2="63.08" y2="32.6"/><line class="cls-3" x1="66.33" y1="26.35" x2="63.08" y2="32.6"/><line class="cls-5" x1="4.6" y1="45.13" x2="24.53" y2="25.2"/><line class="cls-5" x1="47.17" y1="47.73" x2="61.84" y2="33.05"/><line class="cls-5" x1="24.58" y1="25.15" x2="47.17" y2="47.73"/><line class="cls-6" x1="2" y1="69.77" x2="2" y2="24.61"/></g></g></svg>