<svg xmlns="http://www.w3.org/2000/svg" viewBox="0 0 72 72"><defs><style>.cls-1,.cls-2{fill:none;}.cls-2{stroke:#007bff;stroke-linecap:round;stroke-miterlimit:10;stroke-width:4px;}</style></defs><title>资源 159</title><g id="图层_2" data-name="图层 2"><g id="图层_1-2" data-name="图层 1"><rect class="cls-1" x="2" y="2" width="68" height="68"/><polyline class="cls-1" points="70 22.15 70 70 2 70 2 2 70 2 70 22.15"/><path class="cls-2" d="M24.52,16.44a11.81,11.81,0,0,1-.3-2.66"/><path class="cls-2" d="M25.27,18.65a11.69,11.69,0,0,1-.75-2.21"/><path class="cls-2" d="M24.22,13.78a11.78,11.78,0,1,1,22.5,4.87"/><path class="cls-2" d="M30.49,13.78A5.51,5.51,0,1,1,36,19.28a5.51,5.51,0,0,1-5.51-5.51"/><line class="cls-2" x1="26.56" y1="21.16" x2="36" y2="39.27"/><line class="cls-2" x1="25.26" y1="18.65" x2="26.56" y2="21.16"/><line class="cls-2" x1="46.74" y1="18.65" x2="36" y2="39.27"/><line class="cls-2" x1="2" y1="24.67" x2="24.67" y2="2"/><line class="cls-2" x1="44.89" y1="22.22" x2="47.34" y2="24.67"/><line class="cls-2" x1="24.66" y1="2" x2="27.9" y2="5.23"/><line class="cls-2" x1="24.66" y1="47.33" x2="47.34" y2="70"/><line class="cls-2" x1="47.33" y1="24.67" x2="70" y2="2"/><line class="cls-2" x1="2" y1="70" x2="24.67" y2="47.33"/><line class="cls-2" x1="47.33" y1="70" x2="70" y2="47.33"/><line class="cls-2" x1="70" y1="2" x2="70" y2="47.22"/><line class="cls-2" x1="2" y1="69.99" x2="2" y2="24.66"/></g></g></svg>