<svg xmlns="http://www.w3.org/2000/svg" viewBox="0 0 71.75 72"><defs><style>.cls-1,.cls-2{fill:none;}.cls-2{stroke:#939393;stroke-linecap:round;stroke-miterlimit:10;stroke-width:4px;}</style></defs><title>资源 228</title><g id="图层_2" data-name="图层 2"><g id="图层_1-2" data-name="图层 1"><rect class="cls-1" x="1.87" y="2" width="68" height="68"/><line class="cls-2" x1="2" y1="29.8" x2="19.92" y2="13.84"/><line class="cls-2" x1="43.7" y1="26.71" x2="47.17" y2="29.8"/><line class="cls-2" x1="24.58" y1="49.9" x2="47.17" y2="70"/><line class="cls-2" x1="47.17" y1="29.8" x2="69.75" y2="9.69"/><line class="cls-2" x1="2" y1="70" x2="24.58" y2="49.89"/><line class="cls-2" x1="47.17" y1="70" x2="69.75" y2="49.89"/><line class="cls-2" x1="69.75" y1="9.69" x2="69.75" y2="49.8"/><line class="cls-2" x1="2" y1="69.98" x2="2" y2="29.77"/><path class="cls-2" d="M20.28,19a13.88,13.88,0,0,1-.36-3.13"/><path class="cls-2" d="M21.16,21.56a13.73,13.73,0,0,1-.88-2.6"/><path class="cls-2" d="M19.92,15.84a13.84,13.84,0,1,1,26.44,5.73"/><path class="cls-2" d="M27.29,15.84a6.47,6.47,0,1,1,6.47,6.47,6.47,6.47,0,0,1-6.47-6.47"/><line class="cls-2" x1="22.67" y1="24.51" x2="33.76" y2="45.79"/><line class="cls-2" x1="21.14" y1="21.56" x2="22.67" y2="24.51"/><line class="cls-2" x1="46.38" y1="21.56" x2="33.76" y2="45.79"/></g></g></svg>