<svg xmlns="http://www.w3.org/2000/svg" viewBox="0 0 68 71.84"><defs><style>.cls-1,.cls-2{fill:none;}.cls-2{stroke:#06c;stroke-linecap:round;stroke-miterlimit:10;stroke-width:4px;}</style></defs><title>资源 226</title><g id="图层_2" data-name="图层 2"><g id="图层_1-2" data-name="图层 1"><rect class="cls-1" y="1.92" width="68" height="68"/><path class="cls-2" d="M34,35.92"/><circle class="cls-2" cx="34" cy="35.92" r="10.85"/><path class="cls-2" d="M64.21,46.12,58,42.54a25.06,25.06,0,0,0,0-13.22l6.23-3.6a2.66,2.66,0,0,0,1-3.63l-3.62-6.26a2.66,2.66,0,0,0-3.63-1l-6.27,3.62a24.83,24.83,0,0,0-11.39-6.56V4.66A2.66,2.66,0,0,0,37.62,2H30.38a2.66,2.66,0,0,0-2.66,2.66v7.26a24.83,24.83,0,0,0-11.39,6.56l-6.27-3.62a2.66,2.66,0,0,0-3.63,1L2.82,22.09a2.66,2.66,0,0,0,1,3.63L10,29.32a25.06,25.06,0,0,0,0,13.22l-6.2,3.58a2.66,2.66,0,0,0-1,3.63L6.43,56a2.66,2.66,0,0,0,3.63,1l6.17-3.56a24.83,24.83,0,0,0,11.49,6.66v7.1a2.66,2.66,0,0,0,2.66,2.66h7.23a2.66,2.66,0,0,0,2.66-2.66v-7.1a24.83,24.83,0,0,0,11.49-6.66L57.94,57a2.66,2.66,0,0,0,3.63-1l3.62-6.26A2.66,2.66,0,0,0,64.21,46.12Z"/></g></g></svg>