<svg xmlns="http://www.w3.org/2000/svg" viewBox="0 0 68 71.96"><defs><style>.cls-1,.cls-2{fill:none;}.cls-2{stroke:#fff;stroke-linecap:round;stroke-miterlimit:10;stroke-width:4px;}</style></defs><title>资源 201</title><g id="图层_2" data-name="图层 2"><g id="图层_1-2" data-name="图层 1"><rect class="cls-1" y="1.96" width="68" height="68"/><path class="cls-2" d="M45.14,20.58h16a.81.81,0,0,1,.75.86V69.1a.81.81,0,0,1-.75.86H6.84a.81.81,0,0,1-.75-.86V21.45a.81.81,0,0,1,.75-.86H45.14"/><path class="cls-2" d="M20.44,20.58V10.36C20.44,5.74,23.69,2,27.69,2H40.31c4,0,7.25,3.74,7.25,8.36V20.58"/><circle class="cls-2" cx="34" cy="38.82" r="4.08"/><line class="cls-2" x1="34" y1="37.58" x2="34" y2="53.33"/></g></g></svg>