<svg xmlns="http://www.w3.org/2000/svg" viewBox="0 0 71.91 71.96"><defs><style>.cls-1,.cls-2{fill:none;}.cls-2{stroke:#007bff;stroke-miterlimit:10;stroke-width:4px;}</style></defs><title>资源 156</title><g id="图层_2" data-name="图层 2"><g id="图层_1-2" data-name="图层 1"><rect class="cls-1" x="1.95" y="1.96" width="68" height="68"/><rect class="cls-1" x="1.97" y="1.96" width="67.96" height="67.96"/><rect class="cls-2" x="2" y="23.89" width="67.91" height="46.07" rx="2" ry="2"/><path class="cls-2" d="M36,2h0a16,16,0,0,1,16,16v5.9a0,0,0,0,1,0,0H20a0,0,0,0,1,0,0V18A16,16,0,0,1,36,2Z"/><path class="cls-2" d="M39.25,43.79a3.29,3.29,0,1,0-4.51,3.06s0,0,0,.07v5.21a1.22,1.22,0,0,0,2.44,0V46.93s0,0,0-.07A3.29,3.29,0,0,0,39.25,43.79Z"/></g></g></svg>