<svg xmlns="http://www.w3.org/2000/svg" viewBox="0 0 71.97 72"><defs><style>.cls-1,.cls-2,.cls-3{fill:none;}.cls-2,.cls-3{stroke:#f2f2f2;stroke-miterlimit:10;stroke-width:4px;}.cls-2{stroke-linecap:round;}</style></defs><title>资源 168</title><g id="图层_2" data-name="图层 2"><g id="图层_1-2" data-name="图层 1"><polyline class="cls-1" points="69.97 22.16 69.97 69.99 2 69.99 2 2.01 69.97 2.01 69.97 22.16"/><line class="cls-2" x1="2" y1="24.69" x2="24.66" y2="2.03"/><line class="cls-2" x1="24.65" y1="47.34" x2="47.32" y2="70"/><line class="cls-2" x1="2" y1="70" x2="24.66" y2="47.33"/><line class="cls-2" x1="47.32" y1="70" x2="69.97" y2="47.33"/><line class="cls-2" x1="69.97" y1="2.03" x2="69.97" y2="47.23"/><line class="cls-3" x1="2" y1="69.97" x2="2" y2="24.66"/><path class="cls-2" d="M43.08,9.09A7.09,7.09,0,1,1,36,2,7.09,7.09,0,0,1,43.08,9.09Z"/><path class="cls-2" d="M26,34.17a12.28,12.28,0,0,1,6.5-18.9,7.1,7.1,0,0,0,7,0,12.3,12.3,0,0,1,8.43,8.83"/><line class="cls-2" x1="24.65" y1="2.03" x2="29.31" y2="6.68"/><line class="cls-2" x1="47.91" y1="24.1" x2="69.97" y2="2.03"/></g></g></svg>