<svg xmlns="http://www.w3.org/2000/svg" viewBox="0 0 68 72"><defs><style>.cls-1,.cls-2{fill:none;}.cls-2{stroke:#007bff;stroke-linecap:round;stroke-miterlimit:10;stroke-width:4px;}</style></defs><title>资源 166</title><g id="图层_2" data-name="图层 2"><g id="图层_1-2" data-name="图层 1"><rect class="cls-1" y="2" width="68" height="68"/><polyline class="cls-1" points="68 22.15 68 70 0 70 0 2 68 2 68 22.15"/><path class="cls-2" d="M45,17A15,15,0,1,1,30,2,15,15,0,0,1,45,17Z"/><path class="cls-2" d="M8.85,70A26,26,0,0,1,22.59,30.05a15,15,0,0,0,14.76,0,25.93,25.93,0,0,1,11.29,6.86"/><circle class="cls-2" cx="48.59" cy="53.45" r="5.29"/><path class="cls-2" d="M63.32,58.43l-3-1.75a12.22,12.22,0,0,0,0-6.45l3-1.76a1.3,1.3,0,0,0,.47-1.77L62,43.65a1.3,1.3,0,0,0-1.77-.48L57.2,44.94a12.11,12.11,0,0,0-5.56-3.2V38.2a1.3,1.3,0,0,0-1.3-1.3H46.82a1.3,1.3,0,0,0-1.3,1.3v3.54A12.11,12.11,0,0,0,40,44.94l-3.06-1.77a1.3,1.3,0,0,0-1.77.48l-1.76,3.05a1.3,1.3,0,0,0,.47,1.77l3,1.76a12.22,12.22,0,0,0,0,6.45l-3,1.75a1.3,1.3,0,0,0-.47,1.77l1.76,3.05a1.3,1.3,0,0,0,1.77.48l3-1.74a12.11,12.11,0,0,0,5.6,3.25V68.7a1.3,1.3,0,0,0,1.3,1.3h3.53a1.3,1.3,0,0,0,1.3-1.3V65.24A12.11,12.11,0,0,0,57.25,62l3,1.74A1.3,1.3,0,0,0,62,63.25L63.8,60.2A1.3,1.3,0,0,0,63.32,58.43Z"/></g></g></svg>